<svg width="50" height="38" viewBox="0 0 50 38" fill="none" xmlns="http://www.w3.org/2000/svg">
<path d="M0.0812378 33.5614C0.0812378 35.9475 1.93833 37.8801 4.23117 37.8801H45.7305C48.0233 37.8801 49.8804 35.9475 49.8804 33.5614V4.41003C49.8804 2.02394 48.0233 0.0913086 45.7305 0.0913086H4.23117C1.93833 0.0913086 0.0812378 2.02394 0.0812378 4.41003V33.5614ZM15.353 19.0181L5.86002 9.07425C5.07257 8.25369 5.07257 6.92569 5.86002 6.10513C6.64954 5.28457 7.92565 5.28457 8.7131 6.10513L23.8604 21.889C24.4725 22.5152 25.4799 22.5152 26.0816 21.889L41.2486 6.10513C42.0371 5.28457 43.3132 5.28457 44.1017 6.10513C44.8901 6.92569 44.8901 8.25369 44.1017 9.07425L34.5983 19.0181L44.1017 28.8961C44.8901 29.7167 44.8901 31.0447 44.1017 31.8652C43.3132 32.6858 42.0371 32.6858 41.2486 31.8652L31.7556 21.9969C31.7556 21.9969 28.7894 25.1388 28.2499 25.7003C27.4085 26.5543 26.2466 27.0833 24.9808 27.0833C23.6944 27.0833 22.5324 26.5435 21.692 25.6679C21.1421 25.1064 18.1957 21.998 18.1957 21.998L8.71206 31.8663C7.92461 32.6869 6.64851 32.6869 5.85898 31.8663C5.07153 31.0458 5.07153 29.7177 5.85898 28.8972L15.353 19.0181Z" fill="#FFCC00"/>
</svg>
