<svg width="50" height="49" viewBox="0 0 50 49" fill="none" xmlns="http://www.w3.org/2000/svg">
<path d="M36.5364 30.1809C33.194 33.4629 33.194 36.7448 29.8515 36.7448C26.5091 36.7448 23.1666 33.4629 19.8241 30.1809C16.4817 26.899 13.1392 23.617 13.1392 20.3351C13.1392 17.0531 16.4817 17.0531 19.8241 13.7711C23.1666 10.4892 13.1392 0.643311 9.79678 0.643311C8.64747 0.643311 7.10297 1.80743 5.57094 3.3351C1.31571 7.5782 -0.257456 13.8178 2.02526 19.3766C4.57995 25.5977 8.93571 32.6174 13.1392 36.7448C17.4299 40.9578 24.7894 45.3265 31.2204 47.8113C36.665 49.915 42.697 48.4013 46.939 44.392C48.6045 42.8179 49.9062 41.2093 49.9062 40.0268C49.9062 36.7448 39.8789 26.899 36.5364 30.1809Z" fill="#FFCA00"/>
</svg>
