<svg width="44" height="40" viewBox="0 0 44 40" fill="none" xmlns="http://www.w3.org/2000/svg">
<path d="M42.9874 0.258088C43.499 0.589247 43.7423 1.11995 43.6456 1.6733L37.4072 35.6384C37.3339 36.0587 37.0422 36.4125 36.6274 36.6333C36.4075 36.7436 36.1392 36.8102 35.8725 36.8102C35.6776 36.8102 35.4826 36.7663 35.2877 36.6998L24.2487 32.6084L18.3518 39.1311C18.0602 39.4623 17.6204 39.6392 17.1572 39.6392C16.9872 39.6392 16.7922 39.6165 16.6207 39.55C16.0109 39.3505 15.5976 38.8198 15.5976 38.2225V30.5054L36.6523 7.0879L10.6021 27.5419L0.97623 23.96C0.41633 23.7605 0.0498219 23.2963 0.00147394 22.7444C-0.0234798 22.2137 0.269727 21.7056 0.781279 21.4395L41.3311 0.211386C41.5744 0.0783557 41.8427 0.0118408 42.1109 0.0118408C42.4275 0.0118408 42.7441 0.100999 42.9874 0.255257V0.258088Z" fill="#FFCC01"/>
</svg>
