<svg aria-hidden="true" style="position: absolute; width: 0; height: 0; overflow: hidden;" version="1.1"
     xmlns="http://www.w3.org/2000/svg">
  <defs>
    <symbol id="icon-mail" viewBox="0 0 50 38">
      <path
        d="M0.0812378 33.5614C0.0812378 35.9475 1.93833 37.8801 4.23117 37.8801H45.7305C48.0233 37.8801 49.8804 35.9475 49.8804 33.5614V4.41003C49.8804 2.02394 48.0233 0.0913086 45.7305 0.0913086H4.23117C1.93833 0.0913086 0.0812378 2.02394 0.0812378 4.41003V33.5614ZM15.353 19.0181L5.86002 9.07425C5.07257 8.25369 5.07257 6.92569 5.86002 6.10513C6.64954 5.28457 7.92565 5.28457 8.7131 6.10513L23.8604 21.889C24.4725 22.5152 25.4799 22.5152 26.0816 21.889L41.2486 6.10513C42.0371 5.28457 43.3132 5.28457 44.1017 6.10513C44.8901 6.92569 44.8901 8.25369 44.1017 9.07425L34.5983 19.0181L44.1017 28.8961C44.8901 29.7167 44.8901 31.0447 44.1017 31.8652C43.3132 32.6858 42.0371 32.6858 41.2486 31.8652L31.7556 21.9969C31.7556 21.9969 28.7894 25.1388 28.2499 25.7003C27.4085 26.5543 26.2466 27.0833 24.9808 27.0833C23.6944 27.0833 22.5324 26.5435 21.692 25.6679C21.1421 25.1064 18.1957 21.998 18.1957 21.998L8.71206 31.8663C7.92461 32.6869 6.64851 32.6869 5.85898 31.8663C5.07153 31.0458 5.07153 29.7177 5.85898 28.8972L15.353 19.0181Z"
        fill="#FFCC00"/>
    </symbol>
    <symbol id="telegram" viewBox="0 0 44 40">
      <path
        d="M42.9874 0.258088C43.499 0.589247 43.7423 1.11995 43.6456 1.6733L37.4072 35.6384C37.3339 36.0587 37.0422 36.4125 36.6274 36.6333C36.4075 36.7436 36.1392 36.8102 35.8725 36.8102C35.6776 36.8102 35.4826 36.7663 35.2877 36.6998L24.2487 32.6084L18.3518 39.1311C18.0602 39.4623 17.6204 39.6392 17.1572 39.6392C16.9872 39.6392 16.7922 39.6165 16.6207 39.55C16.0109 39.3505 15.5976 38.8198 15.5976 38.2225V30.5054L36.6523 7.0879L10.6021 27.5419L0.97623 23.96C0.41633 23.7605 0.0498219 23.2963 0.00147394 22.7444C-0.0234798 22.2137 0.269727 21.7056 0.781279 21.4395L41.3311 0.211386C41.5744 0.0783557 41.8427 0.0118408 42.1109 0.0118408C42.4275 0.0118408 42.7441 0.100999 42.9874 0.255257V0.258088Z"
        fill="#FFCC01"/>
    </symbol>
    <symbol id="sun" viewBox="0 0 32 32">
      <path
        d="M16.529 22c3.038 0 5.5-2.462 5.5-5.5s-2.462-5.5-5.5-5.5c-3.038 0-5.5 2.462-5.5 5.5s2.462 5.5 5.5 5.5v0zM16.529 7c-0.276 0-0.5 0.216-0.5 0.495v2.009c0 0.274 0.232 0.495 0.5 0.495 0.276 0 0.5-0.216 0.5-0.495v-2.009c0-0.274-0.232-0.495-0.5-0.495v0zM23.267 9.791c-0.195-0.195-0.506-0.201-0.704-0.003l-1.421 1.421c-0.193 0.193-0.186 0.514 0.003 0.704 0.195 0.195 0.506 0.201 0.704 0.003l1.421-1.421c0.193-0.193 0.186-0.514-0.003-0.704v0zM26.058 16.529c0-0.276-0.216-0.5-0.495-0.5h-2.009c-0.274 0-0.495 0.232-0.495 0.5 0 0.276 0.216 0.5 0.495 0.5h2.009c0.274 0 0.495-0.232 0.495-0.5v0zM23.267 23.267c0.195-0.195 0.201-0.506 0.003-0.704l-1.421-1.421c-0.193-0.193-0.514-0.186-0.704 0.003-0.195 0.195-0.201 0.506-0.003 0.704l1.421 1.421c0.193 0.193 0.514 0.186 0.704-0.003v0zM16.529 26.058c0.276 0 0.5-0.216 0.5-0.495v-2.009c0-0.274-0.232-0.495-0.5-0.495-0.276 0-0.5 0.216-0.5 0.495v2.009c0 0.274 0.232 0.495 0.5 0.495v0zM9.791 23.267c0.195 0.195 0.506 0.201 0.704 0.003l1.421-1.421c0.193-0.193 0.186-0.514-0.003-0.704-0.195-0.195-0.506-0.201-0.704-0.003l-1.421 1.421c-0.193 0.193-0.186 0.514 0.003 0.704v0zM7 16.529c0 0.276 0.216 0.5 0.495 0.5h2.009c0.274 0 0.495-0.232 0.495-0.5 0-0.276-0.216-0.5-0.495-0.5h-2.009c-0.274 0-0.495 0.232-0.495 0.5v0zM9.791 9.791c-0.195 0.195-0.201 0.506-0.003 0.704l1.421 1.421c0.193 0.193 0.514 0.186 0.704-0.003 0.195-0.195 0.201-0.506 0.003-0.704l-1.421-1.421c-0.193-0.193-0.514-0.186-0.704 0.003v0z"></path>
    </symbol>
    <symbol id="moon" viewBox="0 0 32 32">
      <path
        d="M21.837 17.831c-0.597 2.392-2.76 4.163-5.337 4.163-3.038 0-5.5-2.462-5.5-5.5 0-2.577 1.772-4.739 4.163-5.337 0.351-0.088 0.716-0.142 1.091-0.158-0.165 0.468-0.254 0.971-0.254 1.495 0 2.485 2.015 4.5 4.5 4.5 0.524 0 1.027-0.090 1.495-0.254-0.016 0.375-0.070 0.739-0.158 1.091z"></path>
    </symbol>
    <symbol id="phone" viewBox="0 0 50 49">
      <path
        d="M36.5364 30.1809C33.194 33.4629 33.194 36.7448 29.8515 36.7448C26.5091 36.7448 23.1666 33.4629 19.8241 30.1809C16.4817 26.899 13.1392 23.617 13.1392 20.3351C13.1392 17.0531 16.4817 17.0531 19.8241 13.7711C23.1666 10.4892 13.1392 0.643311 9.79678 0.643311C8.64747 0.643311 7.10297 1.80743 5.57094 3.3351C1.31571 7.5782 -0.257456 13.8178 2.02526 19.3766C4.57995 25.5977 8.93571 32.6174 13.1392 36.7448C17.4299 40.9578 24.7894 45.3265 31.2204 47.8113C36.665 49.915 42.697 48.4013 46.939 44.392C48.6045 42.8179 49.9062 41.2093 49.9062 40.0268C49.9062 36.7448 39.8789 26.899 36.5364 30.1809Z"
        fill="#FFCA00"/>
    </symbol>
  </defs>
</svg>
